<svg width="54" height="61" viewBox="0 0 54 61" fill="none" xmlns="http://www.w3.org/2000/svg">
<g clip-path="url(#clip0_2_260)">
<path d="M52.0576 26.8508C52.0576 12.6931 40.6776 1.22049 26.6341 1.22049C18.6439 1.22049 11.38 5.12606 6.77959 10.9844C3.38979 15.3782 1.45276 20.7484 1.45276 26.8508C1.45276 34.662 5.08469 39.5439 10.4115 44.1818C11.38 44.9141 12.3485 45.6464 13.3171 46.3787V52.4811C13.3171 56.6308 16.4647 59.8041 20.5809 59.8041H32.9295C37.0457 59.8041 40.1933 56.6308 40.1933 52.4811V46.3787C47.2151 41.7408 52.0576 35.8825 52.0576 26.8508Z" stroke="white" stroke-width="2.05427" stroke-linecap="round" stroke-linejoin="round"/>
<path d="M17.9175 39.788C21.1269 39.788 23.7286 37.1652 23.7286 33.9297C23.7286 30.6942 21.1269 28.0713 17.9175 28.0713C14.7082 28.0713 12.1064 30.6942 12.1064 33.9297C12.1064 37.1652 14.7082 39.788 17.9175 39.788Z" stroke="white" stroke-width="2.05427" stroke-linecap="round" stroke-linejoin="round"/>
<path d="M33.6558 39.788C36.8652 39.788 39.4669 37.1652 39.4669 33.9297C39.4669 30.6942 36.8652 28.0713 33.6558 28.0713C30.4464 28.0713 27.8447 30.6942 27.8447 33.9297C27.8447 37.1652 30.4464 39.788 33.6558 39.788Z" stroke="white" stroke-width="2.05427" stroke-linecap="round" stroke-linejoin="round"/>
<path d="M20.3389 52.4811C20.3389 52.7252 20.3389 59.8041 20.3389 59.8041" stroke="white" stroke-width="2.05427" stroke-linecap="round" stroke-linejoin="round"/>
<path d="M26.1499 52.4811C26.1499 52.7252 26.1499 59.8041 26.1499 59.8041" stroke="white" stroke-width="2.05427" stroke-linecap="round" stroke-linejoin="round"/>
<path d="M31.9611 52.4811C31.9611 52.7252 31.9611 59.8041 31.9611 59.8041" stroke="white" stroke-width="2.05427" stroke-linecap="round" stroke-linejoin="round"/>
<path d="M24.6971 43.2054L22.5179 46.1346" stroke="white" stroke-width="2.05427" stroke-linecap="round" stroke-linejoin="round"/>
<path d="M28.3291 43.2054L30.5083 46.1346" stroke="white" stroke-width="2.05427" stroke-linecap="round" stroke-linejoin="round"/>
</g>
<defs>
<clipPath id="clip0_2_260">
<rect width="53.2683" height="60.7805" fill="white"/>
</clipPath>
</defs>
</svg>
