<?xml version="1.0" encoding="utf-8"?>
<!-- Generator: Adobe Illustrator 25.2.1, SVG Export Plug-In . SVG Version: 6.00 Build 0)  -->
<svg version="1.1" id="Capa_1" xmlns="http://www.w3.org/2000/svg" xmlns:xlink="http://www.w3.org/1999/xlink" x="0px" y="0px"
	 viewBox="0 0 29.4 29.4" style="enable-background:new 0 0 29.4 29.4;" xml:space="preserve">
<style type="text/css">
	.st0{fill:none;stroke:#FFFFFF;stroke-width:1.6327;stroke-linecap:round;stroke-linejoin:round;}
</style>
<g>
	<g>
		<path class="st0" d="M5.8,5.6h16.9c1.1,0,2,0.9,2,2c0,1.1-0.9,2-2,2H5.8c-1.1,0-2-0.9-2-2C3.7,6.5,4.6,5.6,5.8,5.6z"/>
		<path class="st0" d="M12.2,5.6v-2c0-1.1,0.9-2,2-2c1.1,0,2,0.9,2,2v2"/>
		<path class="st0" d="M22.6,9.6v14.3c0,1.9-1.5,3.4-3.4,3.4H9c-1.9,0-3.4-1.5-3.4-3.4V9.6"/>
		<path class="st0" d="M9.6,24.3V13"/>
		<path class="st0" d="M14.1,24.3V13"/>
		<path class="st0" d="M18.7,24.3V13"/>
	</g>
</g>
</svg>
