<?xml version="1.0" encoding="utf-8"?>
<!-- Generator: Adobe Illustrator 26.0.3, SVG Export Plug-In . SVG Version: 6.00 Build 0)  -->
<svg version="1.1" id="Capa_1" xmlns="http://www.w3.org/2000/svg" xmlns:xlink="http://www.w3.org/1999/xlink" x="0px" y="0px"
	 viewBox="0 0 29.4 29.4" style="enable-background:new 0 0 29.4 29.4;" xml:space="preserve">
<style type="text/css">
	.st0{fill:none;stroke:#FFFFFF;stroke-width:1.6327;stroke-linecap:round;stroke-linejoin:round;}
</style>
<path class="st0" d="M5.8,4.8h16.9c1.1,0,2,0.9,2,2s-0.9,2-2,2H5.8c-1.1,0-2-0.9-2-2C3.7,5.7,4.6,4.8,5.8,4.8z"/>
<path class="st0" d="M12.2,4.8v-2c0-1.1,0.9-2,2-2s2,0.9,2,2v2"/>
<path class="st0" d="M22.6,10.8v14.3c0,1.9-1.5,3.4-3.4,3.4H9c-1.9,0-3.4-1.5-3.4-3.4V10.8H22.6z"/>
<path class="st0" d="M9.6,25.5V14.2"/>
<path class="st0" d="M14.1,25.5V14.2"/>
<path class="st0" d="M18.7,25.5V14.2"/>
</svg>
