<svg width="35" height="35" viewBox="0 0 35 35" fill="none" xmlns="http://www.w3.org/2000/svg">
<circle cx="17.5" cy="17.5" r="17.5" fill="white"/>
<path d="M24.892 15.5675H20.5677V11.1081C20.5677 9.75674 19.4866 8.67566 18.1352 8.67566C16.7839 8.67566 15.7028 9.75674 15.7028 11.1081V15.4324H11.1082C9.75686 15.4324 8.67578 16.5135 8.67578 17.8648C8.67578 19.2162 9.75686 20.2973 11.1082 20.2973H15.4325V24.6216C15.4325 25.973 16.5136 27.054 17.865 27.054C19.2163 27.054 20.2974 25.973 20.2974 24.6216V20.5675H24.6217C25.9731 20.5675 27.0542 19.4865 27.0542 18.1351C27.3244 16.6486 26.2433 15.5675 24.892 15.5675Z" fill="#1772FA"/>
</svg>
