<svg id="Capa_1" data-name="Capa 1" xmlns="http://www.w3.org/2000/svg" viewBox="0 0 19.66 23.74"><defs><style>.cls-1{fill:none;stroke:#000;stroke-linecap:round;stroke-linejoin:round;}</style></defs><rect class="cls-1" x="0.5" y="4.07" width="18.66" height="3.53" rx="1.76"/><path class="cls-1" d="M10.24,4.2V2.39A1.76,1.76,0,0,1,12,.63h0a1.76,1.76,0,0,1,1.76,1.76V4.2" transform="translate(-2.17 -0.13)"/><path class="cls-1" d="M2.25,7.6H17.41a0,0,0,0,1,0,0V20.24a3,3,0,0,1-3,3H5.25a3,3,0,0,1-3-3V7.6A0,0,0,0,1,2.25,7.6Z"/><line class="cls-1" x1="5.74" y1="20.54" x2="5.74" y2="10.6"/><line class="cls-1" x1="9.83" y1="20.54" x2="9.83" y2="10.6"/><line class="cls-1" x1="13.92" y1="20.54" x2="13.92" y2="10.6"/></svg>